<?xml version="1.0" standalone="no"?>
<!DOCTYPE svg PUBLIC "-//W3C//DTD SVG 20010904//EN"
 "http://www.w3.org/TR/2001/REC-SVG-20010904/DTD/svg10.dtd">
<svg version="1.0" xmlns="http://www.w3.org/2000/svg"
 width="779.000000pt" height="1280.000000pt" viewBox="0 0 779.000000 1280.000000"
 preserveAspectRatio="xMidYMid meet">
<metadata>
Created by potrace 1.15, written by Peter Selinger 2001-2017
</metadata>
<g transform="translate(0.000000,1280.000000) scale(0.100000,-0.100000)"
fill="#000000" stroke="none">
<path d="M3998 12740 c-4 -19 -21 -199 -39 -400 -18 -201 -35 -368 -38 -372
-4 -4 -56 -14 -116 -23 -61 -9 -121 -18 -135 -21 l-25 -6 25 -17 c128 -85 200
-166 200 -223 0 -40 -46 -58 -150 -58 l-81 0 110 -109 c102 -101 132 -145 116
-170 -9 -16 -101 -40 -205 -54 l-93 -12 59 -45 c88 -67 193 -175 214 -223 14
-30 20 -65 20 -119 0 -43 -3 -78 -6 -78 -3 0 -43 26 -87 58 -162 116 -304 188
-434 218 -135 32 -299 -5 -240 -54 6 -6 89 -40 182 -77 94 -37 217 -91 275
-121 101 -52 221 -134 228 -154 6 -17 -50 -11 -275 30 -367 68 -489 73 -538
23 -29 -28 -22 -31 345 -113 365 -82 492 -120 545 -165 19 -15 2 -16 -250 -8
-551 16 -645 10 -653 -44 -7 -46 73 -65 323 -78 351 -18 524 -42 562 -77 49
-46 55 -108 12 -140 -38 -29 -92 -25 -189 11 -174 66 -471 119 -602 107 -80
-7 -144 -31 -159 -58 -21 -38 -33 -36 351 -73 242 -24 455 -75 468 -114 8 -23
-405 -8 -758 28 -345 35 -510 40 -530 15 -11 -13 -3 -26 61 -88 123 -120 245
-165 449 -166 328 0 933 -138 893 -203 -8 -13 -88 -5 -333 32 -280 43 -415 54
-564 48 -141 -5 -243 -29 -288 -67 -22 -19 -22 -21 -5 -34 28 -22 124 -34 437
-56 460 -33 650 -66 738 -129 39 -29 61 -65 47 -79 -19 -19 -244 21 -383 69
-118 41 -802 108 -960 95 -43 -3 -89 -14 -115 -27 -84 -43 -247 -169 -247
-191 0 -6 16 -32 35 -58 41 -56 89 -83 134 -74 39 8 39 -1 2 -57 l-30 -44 87
-22 c706 -185 1220 -379 1364 -514 65 -61 58 -74 -36 -66 -146 11 -584 142
-1182 352 l-296 104 -49 -19 c-70 -28 -147 -68 -197 -102 -122 -84 -53 -140
189 -155 l96 -6 -15 -41 c-19 -51 -11 -85 28 -129 25 -28 41 -36 112 -51 120
-25 546 -132 663 -166 397 -116 621 -216 662 -294 20 -38 6 -50 -57 -48 -130
3 -608 167 -972 333 -131 60 -208 72 -368 59 -186 -15 -469 -82 -525 -124 -18
-13 -18 -16 -5 -30 8 -8 62 -33 120 -56 172 -68 214 -107 155 -146 -14 -9 -87
-34 -163 -56 -132 -38 -182 -59 -182 -77 0 -21 97 -53 720 -235 782 -229 1191
-399 1350 -560 33 -35 41 -49 33 -57 -34 -34 -423 110 -1038 386 -143 64 -266
119 -272 122 -8 3 -5 -12 8 -42 24 -55 19 -91 -15 -106 -29 -13 -53 -2 -181
87 -201 139 -364 190 -532 165 -100 -14 -236 -63 -270 -97 -22 -22 -23 -25 -8
-53 17 -34 97 -76 206 -109 73 -23 284 -67 367 -78 42 -5 52 -10 47 -22 -25
-65 -36 -116 -31 -137 9 -37 61 -91 127 -132 33 -20 58 -38 55 -40 -2 -2 -99
42 -216 97 -117 56 -214 99 -216 97 -2 -2 5 -48 16 -102 11 -53 20 -101 20
-107 0 -5 -15 2 -33 16 -56 43 -179 95 -252 106 -90 14 -180 0 -265 -43 -78
-40 -87 -53 -72 -104 16 -53 71 -115 141 -158 l59 -36 -16 -49 c-13 -40 -13
-53 -2 -79 17 -42 54 -62 216 -119 131 -46 336 -133 329 -140 -1 -2 -41 4 -89
13 -95 18 -228 23 -294 11 -52 -10 -102 -49 -102 -81 0 -70 133 -139 320 -165
41 -6 215 -26 385 -45 802 -89 1167 -175 1395 -330 100 -68 204 -204 176 -232
-13 -13 -124 41 -290 141 -226 136 -253 149 -259 132 -3 -8 -11 -50 -17 -94
l-12 -81 -62 36 c-170 97 -376 184 -472 199 l-42 6 -7 -43 c-12 -73 -13 -73
-100 -15 -111 75 -226 131 -331 161 -87 24 -242 47 -249 36 -1 -3 -9 -32 -16
-63 -8 -32 -17 -58 -21 -58 -3 0 -20 11 -36 25 -101 85 -258 116 -412 80 -75
-18 -256 -103 -284 -134 -23 -25 -15 -48 21 -62 43 -17 192 -37 373 -49 397
-27 605 -56 724 -100 146 -55 257 -239 180 -299 l-25 -20 -107 39 c-59 21
-176 63 -260 94 -186 68 -290 85 -542 93 -199 5 -299 -7 -364 -45 -106 -62 -5
-93 1109 -337 684 -150 1114 -276 1304 -381 112 -63 171 -142 133 -181 -31
-31 -132 0 -496 154 -328 137 -424 176 -580 229 -70 24 -130 44 -131 44 -1 0
-17 -42 -35 -92 -18 -51 -34 -94 -35 -96 -2 -2 -41 28 -88 65 -101 82 -235
154 -334 182 l-73 20 0 -21 c0 -11 9 -61 21 -110 12 -49 19 -91 17 -93 -1 -1
-53 17 -113 41 -378 148 -713 183 -878 92 -51 -28 -55 -55 -12 -79 68 -40 240
-77 797 -174 352 -61 499 -106 536 -162 29 -45 -8 -42 -283 17 -49 11 -118 20
-153 21 -53 1 -67 -2 -87 -21 -23 -21 -30 -23 -107 -17 -46 4 -164 25 -263 47
-343 77 -395 77 -395 2 0 -42 47 -147 79 -176 15 -14 69 -23 238 -42 703 -79
1203 -179 1324 -264 33 -24 38 -60 12 -81 -49 -41 -390 15 -742 122 -35 10
-69 19 -76 19 -32 0 -59 -141 -33 -169 17 -18 15 -17 -152 67 -206 103 -291
113 -298 34 -2 -17 -7 -32 -12 -32 -4 0 -62 23 -127 51 -160 68 -335 128 -397
135 -99 11 -115 -47 -30 -112 114 -86 550 -220 1123 -343 100 -22 186 -42 189
-45 3 -3 -11 -6 -30 -6 -20 0 -89 -9 -155 -20 -196 -33 -310 -78 -335 -131
l-14 -27 -59 35 c-105 62 -290 151 -371 179 -57 20 -100 28 -152 28 -69 1 -75
-1 -98 -27 -13 -15 -24 -36 -24 -45 0 -16 -11 -15 -137 10 -214 43 -353 49
-353 15 0 -17 52 -65 110 -104 25 -16 128 -76 230 -132 352 -195 475 -293 365
-293 -20 0 -25 -4 -20 -17 22 -56 57 -172 53 -176 -2 -3 -95 38 -206 89 -375
176 -455 197 -613 157 -162 -40 -306 -132 -325 -206 -25 -100 82 -207 320
-320 131 -63 257 -106 399 -137 86 -19 133 -22 302 -22 229 0 268 6 603 89
119 29 244 59 277 66 180 38 603 -17 782 -102 77 -37 105 -73 101 -131 -4 -63
-28 -61 -149 7 -178 102 -273 131 -398 122 -102 -8 -195 -54 -294 -147 l-75
-70 -104 20 c-347 66 -522 67 -557 2 -19 -35 -12 -68 29 -148 22 -43 38 -79
37 -81 -2 -2 -20 4 -41 12 -61 26 -270 73 -378 86 -297 34 -511 -53 -414 -169
52 -61 223 -127 446 -173 97 -19 126 -21 375 -16 351 7 621 37 913 103 138 31
360 95 424 123 l47 20 35 -47 c105 -144 236 -164 374 -59 37 27 81 58 97 69
34 20 86 24 117 7 22 -12 57 -82 58 -116 0 -12 4 -24 9 -28 5 -3 61 17 125 45
63 27 129 50 145 50 l31 0 0 -1023 0 -1024 263 -6 c413 -11 567 -9 567 6 0 6
-13 109 -30 227 -36 263 -83 688 -106 950 -22 242 -25 679 -6 760 31 131 180
280 281 280 18 0 79 -13 135 -30 139 -40 370 -96 434 -105 64 -8 75 -1 97 64
27 82 73 110 190 116 60 3 73 7 92 29 12 14 27 51 33 82 12 56 38 94 64 94 7
0 121 -22 252 -49 797 -165 1247 -199 1574 -120 99 24 203 76 249 123 l31 32
-22 34 c-34 51 -83 75 -148 74 -63 -1 -97 -10 -236 -66 l-101 -41 -134 34
c-107 26 -155 33 -240 33 -100 1 -109 -1 -167 -30 -54 -29 -63 -30 -81 -18
-36 26 -224 82 -377 113 -152 31 -477 81 -526 81 -16 0 -28 4 -28 10 0 5 12
13 28 17 43 12 605 9 1102 -6 250 -8 539 -12 642 -10 l188 4 31 31 c44 45 45
90 1 120 -18 12 -55 27 -83 33 -108 23 -374 6 -438 -28 -15 -8 -32 -5 -76 15
-136 60 -313 70 -439 25 l-58 -21 -29 24 c-69 58 -183 74 -604 86 -418 11
-437 14 -481 55 -42 40 -43 56 -3 90 26 21 39 25 73 21 22 -3 95 -8 161 -11
66 -3 311 -19 545 -35 632 -44 823 -51 1170 -48 l315 3 23 45 c41 79 20 139
-63 184 -34 18 -57 21 -150 21 -126 0 -204 -21 -293 -80 l-52 -34 -41 44 c-81
88 -172 95 -406 33 -250 -65 -350 -59 -392 27 -12 25 -11 33 5 74 15 34 31 53
68 76 l49 30 316 1 c302 0 321 1 431 26 161 36 227 63 278 113 33 34 42 49 42
78 0 49 -49 91 -127 107 -72 16 -227 7 -338 -18 l-80 -18 -56 29 c-107 55
-247 43 -501 -42 l-117 -39 -50 18 c-140 54 -431 45 -736 -21 -113 -24 -125
-24 -125 1 0 55 289 140 765 224 77 13 196 27 265 30 158 8 361 37 512 74 126
31 233 84 315 156 113 99 86 152 -76 150 -127 -1 -291 -50 -400 -119 l-44 -27
-56 29 c-47 24 -68 28 -131 27 -79 0 -90 -4 -315 -102 -49 -21 -120 -46 -156
-55 -110 -27 -310 -57 -379 -57 l-65 1 39 33 c21 18 132 92 245 164 l207 130
274 21 c480 37 490 39 661 127 92 48 126 75 114 95 -12 18 -136 5 -295 -31
-274 -62 -785 -67 -947 -10 -98 35 20 62 447 105 385 38 686 78 763 101 11 4
17 15 17 35 0 74 -59 142 -153 174 -76 26 -337 32 -480 11 -59 -9 -111 -16
-116 -16 -5 0 -11 13 -14 28 -8 37 -45 61 -116 74 -78 15 -238 -8 -434 -62
-80 -22 -150 -40 -156 -40 -17 0 -41 31 -41 54 0 25 39 66 85 89 33 16 124 35
325 67 74 12 160 31 190 42 31 11 100 24 160 28 149 12 253 28 343 52 79 21
157 67 157 93 0 22 -59 84 -101 106 -160 81 -544 16 -1012 -173 -151 -61 -182
-66 -201 -35 -16 26 31 109 114 200 l69 75 68 7 c73 7 234 37 323 60 325 83
612 246 772 438 52 63 60 96 32 136 -40 56 -176 -11 -352 -175 -46 -42 -84
-75 -86 -73 -1 2 -9 25 -16 52 -8 31 -24 57 -47 77 -29 26 -41 30 -94 30 -75
0 -139 -21 -332 -111 -215 -100 -283 -121 -387 -122 -120 0 -180 34 -159 91
13 34 80 59 194 72 276 31 361 83 457 277 60 124 85 146 174 151 49 3 85 -3
167 -27 121 -36 148 -38 170 -13 40 44 9 128 -68 183 l-44 32 23 28 c13 16 32
48 41 73 15 38 15 48 3 73 -7 15 -31 37 -53 48 -36 17 -70 20 -335 26 -321 8
-731 36 -746 52 -6 6 186 63 306 92 147 35 297 55 420 55 199 0 272 25 278 92
3 31 -3 40 -48 81 -86 78 -176 103 -413 117 -212 12 -351 41 -462 98 l-50 25
30 13 c17 8 159 61 318 120 217 80 287 110 287 123 0 9 -9 48 -19 88 l-19 71
36 34 c45 43 92 116 92 143 0 12 -9 30 -21 41 -59 53 -333 22 -1746 -194 -180
-28 -183 -28 -231 -10 -27 10 -59 29 -72 43 -23 24 -23 25 -5 45 24 26 99 49
330 98 507 109 871 165 1072 166 l143 1 0 34 c0 81 -129 215 -275 287 -152 73
-233 88 -485 88 -271 1 -374 -18 -613 -110 l-48 -19 -55 29 c-58 31 -94 67
-94 96 0 42 105 97 231 120 141 27 425 8 628 -40 l76 -19 103 41 c110 43 177
92 166 122 -17 45 -154 76 -360 83 -169 6 -244 -2 -434 -47 -135 -32 -204 -38
-198 -17 11 35 126 63 494 121 178 28 269 53 269 75 0 24 -48 51 -110 61 -72
13 -172 6 -405 -26 -96 -13 -214 -27 -262 -31 -83 -6 -90 -5 -128 21 -69 46
-61 104 20 146 37 19 58 20 470 20 l432 0 -4 245 c-2 183 -6 247 -16 257 -23
23 -472 17 -672 -10 -91 -11 -205 -24 -255 -28 l-90 -7 16 24 c9 13 45 39 80
57 102 52 242 83 699 153 119 18 148 26 167 45 30 30 29 50 -4 71 -56 37 -299
18 -640 -51 -165 -33 -201 -33 -248 -2 -54 36 -51 89 9 145 26 25 27 25 319
32 337 8 405 17 455 62 46 42 21 104 -53 133 -38 14 -66 16 -168 11 -67 -4
-162 -16 -212 -27 -141 -32 -231 -41 -342 -34 -77 5 -103 10 -103 20 0 42 119
64 470 90 228 16 293 24 343 43 38 15 34 36 -13 62 -40 22 -300 24 -542 4
-144 -12 -213 -14 -220 -7 -49 49 133 99 547 151 l210 26 3 35 c2 28 -3 41
-23 60 -23 21 -38 25 -105 28 -93 5 -175 -11 -396 -73 -87 -25 -174 -45 -191
-45 -49 0 -73 29 -73 88 0 81 3 85 109 135 54 26 109 55 122 66 l24 19 -49 22
c-27 11 -76 28 -108 38 l-58 17 0 92 c0 92 0 93 33 120 17 15 63 58 101 95 60
59 67 69 55 84 -16 19 -75 14 -169 -15 -32 -10 -62 -16 -65 -13 -3 3 -5 40 -5
83 0 79 5 89 46 89 36 0 116 44 130 72 14 26 13 30 -9 52 -23 23 -100 46 -152
46 -14 0 -25 1 -26 3 0 1 -20 198 -43 437 -26 267 -45 421 -48 400z m-148
-2930 l0 -61 -67 7 c-146 15 -199 44 -136 73 22 11 113 29 196 40 4 1 7 -26 7
-59z m521 -111 c103 -10 169 -29 169 -48 0 -26 -114 -60 -294 -86 -60 -9 -110
-14 -111 -13 -1 2 -6 38 -10 81 l-7 77 75 0 c41 0 121 -5 178 -11z m-118 -241
c53 -11 58 -20 23 -43 -23 -15 -152 -42 -160 -34 -2 2 -7 25 -11 51 l-7 47 53
-5 c30 -3 75 -10 102 -16z m-993 -318 c122 -21 366 -77 463 -105 l57 -16 0
-74 0 -74 -67 20 c-211 60 -635 173 -743 197 -135 30 -155 46 -90 70 48 17
233 9 380 -18z m370 -350 c63 -11 139 -25 168 -31 l52 -10 0 -79 c0 -43 -4
-81 -9 -84 -11 -7 -301 91 -396 134 -37 16 -81 40 -97 52 -29 20 -30 22 -12
36 24 17 129 11 294 -18z m1221 -310 c73 -40 -142 -122 -481 -184 -232 -42
-216 -42 -224 2 -3 20 -6 62 -6 93 l0 57 98 12 c249 30 574 40 613 20z m-1781
-599 c115 -26 324 -97 543 -185 l182 -73 3 -66 c2 -37 -1 -67 -6 -67 -40 0
-857 270 -916 303 -47 26 -61 56 -40 86 13 18 25 21 82 21 37 0 105 -9 152
-19z m1700 -195 c0 -42 -175 -115 -437 -180 -56 -14 -104 -26 -107 -26 -3 0
-6 28 -6 63 l0 62 133 30 c300 66 417 80 417 51z m-1915 -21 c101 -21 279 -79
440 -142 157 -62 513 -219 533 -235 7 -6 12 -35 12 -70 0 -53 -2 -59 -17 -53
-10 3 -229 80 -488 170 -727 253 -765 267 -765 277 0 20 22 49 43 58 35 14
165 11 242 -5z m2210 -525 c8 -12 -44 -44 -115 -71 -109 -41 -582 -150 -700
-161 l-35 -3 3 50 c2 28 7 54 12 58 4 5 102 27 216 49 411 78 604 103 619 78z
m-2013 -315 c106 -22 365 -112 573 -198 l180 -75 -1 -61 c-1 -34 -3 -63 -6
-66 -2 -3 -140 49 -306 115 -165 66 -373 144 -461 173 -170 55 -189 69 -150
108 23 23 71 25 171 4z m1838 -74 c0 -22 -150 -66 -465 -136 l-190 -43 -9 55
c-5 31 -5 58 0 63 7 7 160 28 449 63 65 8 215 6 215 -2z m-55 -386 c0 -22
-178 -77 -448 -140 -64 -16 -120 -25 -124 -21 -3 3 -8 31 -11 61 -5 64 -25 56
208 85 91 11 179 21 195 24 57 7 180 1 180 -9z m-2058 -30 c153 -25 391 -91
691 -190 155 -52 291 -99 301 -105 13 -7 22 -30 30 -76 7 -36 10 -68 8 -70 -2
-2 -115 33 -253 77 -137 44 -388 125 -559 180 -170 55 -345 112 -387 125 -43
14 -78 31 -78 38 0 37 100 45 247 21z m1680 -326 c65 -13 84 -32 51 -53 -36
-23 -223 -62 -232 -48 -2 4 -7 33 -11 66 l-7 58 74 -6 c40 -4 96 -12 125 -17z
m397 -280 c16 -15 -40 -64 -117 -102 -107 -52 -263 -94 -419 -112 l-58 -7 0
80 0 80 48 11 c267 57 515 80 546 50z m503 -155 c12 -33 -16 -65 -90 -99 -84
-38 -440 -163 -741 -260 -115 -37 -216 -69 -223 -72 -11 -4 -13 16 -11 108 l3
114 165 48 c199 58 486 131 595 151 44 8 89 17 100 19 11 3 60 5 108 6 71 1
89 -2 94 -15z m-628 -560 c44 -9 37 -34 -19 -61 -55 -27 -190 -52 -332 -60
l-108 -6 0 50 0 49 153 13 c83 7 157 14 162 16 18 6 112 5 144 -1z m341 -174
c0 -25 -137 -85 -315 -138 -82 -24 -442 -112 -460 -112 -3 0 -5 20 -5 45 0 55
-17 48 257 115 354 88 523 117 523 90z m456 -142 c16 -16 16 -19 -9 -57 -15
-23 -52 -57 -81 -77 -49 -32 -65 -37 -174 -50 -180 -21 -489 -91 -867 -197
l-120 -34 -3 30 c-7 62 3 74 106 126 232 116 530 214 807 265 112 21 318 17
341 -6z m-2184 -483 c169 -35 301 -95 381 -173 l38 -37 -22 -17 c-47 -39 -208
-4 -386 83 -107 53 -202 126 -189 147 10 17 90 15 178 -3z m2013 -21 c34 -35
-33 -64 -147 -64 -67 0 -94 11 -60 25 129 56 180 65 207 39z m-759 -399 c9
-23 -20 -60 -62 -80 -40 -19 -184 -32 -228 -21 -22 5 -26 12 -26 41 0 28 5 36
23 40 160 38 283 46 293 20z m-1477 -280 c22 -8 62 -26 87 -41 44 -26 52 -27
163 -25 102 2 213 -6 334 -25 l37 -6 0 -74 0 -74 -27 0 c-53 0 -268 21 -328
31 -158 28 -322 94 -393 159 -39 35 -40 45 -4 58 39 15 84 14 131 -3z m1641
-70 c6 -8 9 -23 6 -33 -11 -34 -78 -94 -135 -121 -52 -24 -66 -26 -198 -26
-78 0 -144 3 -147 6 -4 4 -9 29 -13 57 l-6 51 39 6 c63 10 193 35 284 55 105
23 154 24 170 5z m-1095 -382 c81 -22 96 -41 103 -134 4 -50 2 -58 -19 -73
-78 -54 -383 30 -447 124 l-22 33 22 24 c51 55 210 66 363 26z m-1417 -83 c45
-17 84 -35 87 -40 3 -4 2 -36 -2 -70 -6 -60 -7 -61 -32 -55 -108 27 -315 172
-280 196 25 18 142 2 227 -31z m2335 5 c136 -24 187 -56 151 -96 -37 -41 -189
-47 -379 -16 l-70 12 0 50 c0 47 2 50 30 56 55 12 182 9 268 -6z"/>
</g>
</svg>
